<?xml version="1.0" encoding="UTF-8"?>
<svg version="1.1" xmlns="http://www.w3.org/2000/svg" width="500" height="500">
<path d="M0 0 C165 0 330 0 500 0 C500 165 500 330 500 500 C335 500 170 500 0 500 C0 335 0 170 0 0 Z " fill="#FEFEFE" transform="translate(0,0)"/>
<path d="M0 0 C0.10916631 6.73712074 -1.4376597 10.31240817 -6.07421875 15.16015625 C-7.30552056 16.33651153 -8.55671028 17.49261144 -9.83203125 18.62109375 C-11.725986 20.26775716 -11.725986 20.26775716 -14 23 C-14.03593158 26.30184928 -14.03593158 26.30184928 -13 29 C-11.35 29.33 -9.7 29.66 -8 30 C-8.875 34.875 -8.875 34.875 -10 36 C-9.64561678 42.96953669 -7.87821827 49.13656398 -5.7421875 55.765625 C-4.99733481 59.01161461 -5.06321661 60.84576731 -6 64 C-6.99 64.33 -7.98 64.66 -9 65 C-13.82131193 57.98747177 -18.07683116 50.74992058 -22.20703125 43.31445312 C-22.66980469 42.49783203 -23.13257813 41.68121094 -23.609375 40.83984375 C-24.02155273 40.10113037 -24.43373047 39.36241699 -24.85839844 38.60131836 C-25.23512695 38.0728833 -25.61185547 37.54444824 -26 37 C-28.08016055 36.77518047 -28.08016055 36.77518047 -29.4453125 38.3203125 C-29.99960938 38.91585937 -30.55390625 39.51140625 -31.125 40.125 C-34.74566782 43.8519348 -38.58762399 47.23085368 -43 50 C-43.66 50 -44.32 50 -45 50 C-44.7834375 50.66386719 -44.566875 51.32773437 -44.34375 52.01171875 C-43.92609375 53.33623047 -43.92609375 53.33623047 -43.5 54.6875 C-43.2215625 55.55761719 -42.943125 56.42773438 -42.65625 57.32421875 C-42.00149195 59.99391677 -41.88168505 62.26396684 -42 65 C-43.32 65 -44.64 65 -46 65 C-46.31453125 64.36191406 -46.6290625 63.72382813 -46.953125 63.06640625 C-47.38109375 62.24011719 -47.8090625 61.41382813 -48.25 60.5625 C-48.66765625 59.73878906 -49.0853125 58.91507812 -49.515625 58.06640625 C-50.82577099 55.83155525 -50.82577099 55.83155525 -53.171875 55.21484375 C-53.77515625 55.14394531 -54.3784375 55.07304687 -55 55 C-55.06058594 54.40703125 -55.12117188 53.8140625 -55.18359375 53.203125 C-56.34977113 50.05612001 -58.17398151 49.35879511 -61.0625 47.75 C-61.98160156 47.22921875 -62.90070312 46.7084375 -63.84765625 46.171875 C-64.55792969 45.78515625 -65.26820312 45.3984375 -66 45 C-65.34 44.01 -64.68 43.02 -64 42 C-57 43 -57 43 -53.5625 44.1875 C-49.97623963 44.38662944 -49.97623963 44.38662944 -48.02734375 42.1171875 C-45.9267214 39.47016049 -43.96721865 36.74719011 -42 34 C-40.68708229 32.44091021 -39.35550435 30.89720953 -38 29.375 C-37.4225 28.72273438 -36.845 28.07046875 -36.25 27.3984375 C-35.8375 26.93695313 -35.425 26.47546875 -35 26 C-35.64195313 25.77054688 -36.28390625 25.54109375 -36.9453125 25.3046875 C-41.09113147 23.53396687 -44.95004966 21.33560421 -48.875 19.125 C-49.65230469 18.69058594 -50.42960937 18.25617188 -51.23046875 17.80859375 C-55.83516728 15.23151037 -60.42223453 12.62458554 -65 10 C-64.34 8.68 -63.68 7.36 -63 6 C-55.64490425 6.3389445 -49.10211671 8.00707999 -42.1015625 10.2578125 C-39.11631862 10.97216557 -37.77119791 11.20211782 -35 10 C-34.34 9.34 -33.68 8.68 -33 8 C-30.875 8.375 -30.875 8.375 -29 9 C-29 10.32 -29 11.64 -29 13 C-27.02 13.66 -25.04 14.32 -23 15 C-22.11957031 14.08476562 -21.23914063 13.16953125 -20.33203125 12.2265625 C-19.15926024 11.02564498 -17.98606051 9.82514602 -16.8125 8.625 C-16.23435547 8.02171875 -15.65621094 7.4184375 -15.06054688 6.796875 C-10.41145752 2.06898752 -6.86897374 -0.39251278 0 0 Z " fill="#060606" transform="translate(125,226)"/>
<path d="M0 0 C5.32754657 3.11142903 8.40889807 7.03919422 10.375 12.9375 C11.36816875 20.67002814 9.73112047 26.50050308 5.375 32.9375 C1.55866644 37.30633225 -3.0596686 39.66261833 -8.87329102 40.11083984 C-11.39782181 40.1694974 -13.91260023 40.16131574 -16.4375 40.125 C-17.30826172 40.12435547 -18.17902344 40.12371094 -19.07617188 40.12304688 C-25.48440566 40.07809434 -25.48440566 40.07809434 -26.625 38.9375 C-26.65410912 37.16146587 -26.61132271 35.38417726 -26.5390625 33.609375 C-26.47464966 31.95228516 -26.47464966 31.95228516 -26.40893555 30.26171875 C-26.35648682 29.08222656 -26.30403809 27.90273438 -26.25 26.6875 C-26.1981958 25.50285156 -26.1463916 24.31820313 -26.09301758 23.09765625 C-25.98798589 20.75832877 -25.88006552 18.41912893 -25.76904297 16.08007812 C-25.65155905 13.51693734 -25.5552817 10.95502947 -25.47265625 8.390625 C-25.41980469 7.25109375 -25.36695313 6.1115625 -25.3125 4.9375 C-25.27511719 3.98875 -25.23773438 3.04 -25.19921875 2.0625 C-24.625 -0.0625 -24.625 -0.0625 -23.02734375 -1.34765625 C-15.78475015 -3.50276947 -6.86197514 -3.14162717 0 0 Z " fill="#0A0A0A" transform="translate(156.625,244.0625)"/>
<path d="M0 0 C1.25393555 0.02707031 1.25393555 0.02707031 2.53320312 0.0546875 C4.58513228 0.10158874 6.63646756 0.17332589 8.6875 0.25 C9.72528213 6.84620612 9.72136974 13.15016311 9.4375 19.8125 C9.41042969 20.81474609 9.38335937 21.81699219 9.35546875 22.84960938 C9.05387277 30.23871095 8.18502113 35.44790312 3.125 41.125 C0.25473581 43.6272816 -0.64925942 44.18367594 -4.4375 44.5625 C-9.08209012 44.18793628 -12.57579461 43.07066839 -16.3125 40.25 C-17.4375 37.625 -17.4375 37.625 -17.3125 35.25 C-16.6525 34.59 -15.9925 33.93 -15.3125 33.25 C-10.75694444 33.80555556 -10.75694444 33.80555556 -9.3125 35.25 C-6.98432036 35.61760731 -4.6506615 35.95241581 -2.3125 36.25 C-1.6525 33.28 -0.9925 30.31 -0.3125 27.25 C-2.2925 28.24 -2.2925 28.24 -4.3125 29.25 C-7.61708299 29.67837187 -10.10640676 29.94996482 -13.0625 28.234375 C-15.76835983 26.07489071 -17.20874641 24.56126077 -18.3125 21.25 C-18.81692239 15.9825072 -18.9841659 11.61820832 -16.625 6.8125 C-11.16098653 0.75778237 -7.94308905 -0.32599892 0 0 Z " fill="#080808" transform="translate(397.3125,253.75)"/>
<path d="M0 0 C3.0625 -0.25 3.0625 -0.25 6 0 C7 1 7 1 7.11352539 2.85766602 C7.10828857 3.64842529 7.10305176 4.43918457 7.09765625 5.25390625 C7.09443359 6.10791016 7.09121094 6.96191406 7.08789062 7.84179688 C7.07951172 8.73962891 7.07113281 9.63746094 7.0625 10.5625 C7.05798828 11.46419922 7.05347656 12.36589844 7.04882812 13.29492188 C7.03700225 15.53001314 7.0205222 17.76497437 7 20 C8.32 20.33 9.64 20.66 11 21 C13.32448093 17.51327861 13.3110036 15.75457134 13.5 11.625 C13.69934897 7.28915991 14.16491693 3.95134823 16 0 C17.99954746 -0.04254356 20.00041636 -0.04080783 22 0 C23 1 23 1 23.1328125 3.30859375 C23.1239111 6.87360334 23.07892034 10.43599097 23 14 C22.98743164 14.73686035 22.97486328 15.4737207 22.96191406 16.23291016 C22.57565759 34.94270091 22.57565759 34.94270091 18 41 C14.13321699 44.63192417 10.81851085 44.54698283 5.70703125 44.4375 C1.5526367 43.7660827 -0.18415797 42.04415355 -3 39 C-2.67 37.35 -2.34 35.7 -2 34 C-0.1875 33.3125 -0.1875 33.3125 2 33 C2.45375 33.474375 2.9075 33.94875 3.375 34.4375 C5.0085302 36.34678731 5.0085302 36.34678731 8.1875 36.1875 C9.115625 36.125625 10.04375 36.06375 11 36 C12.85776765 32.86501708 13.20140476 30.62528568 13 27 C12.62875 27.495 12.2575 27.99 11.875 28.5 C10 30 10 30 7.125 30.5 C3.00358421 29.84057347 1.62696945 28.15236334 -1 25 C-2.81948976 21.36102049 -2.18470453 17.06840712 -2.1875 13.0625 C-2.19974609 12.14275391 -2.21199219 11.22300781 -2.22460938 10.27539062 C-2.22654297 9.39173828 -2.22847656 8.50808594 -2.23046875 7.59765625 C-2.23457764 6.78820557 -2.23868652 5.97875488 -2.24291992 5.14477539 C-2 3 -2 3 0 0 Z " fill="#080808" transform="translate(315,254)"/>
<path d="M0 0 C2.04177296 0 4.08363528 -0.02167271 6.125 -0.0625 C9 0 9 0 10 1 C10.01665074 2.56423432 9.96308892 4.12935006 9.87890625 5.69140625 C9.83056641 6.63564453 9.78222656 7.57988281 9.73242188 8.55273438 C9.67634766 9.54595703 9.62027344 10.53917969 9.5625 11.5625 C9.51029297 12.55958984 9.45808594 13.55667969 9.40429688 14.58398438 C9.2741763 17.05627522 9.13919819 19.5282063 9 22 C10.65 21.67 12.3 21.34 14 21 C14.495 23.475 14.495 23.475 15 26 C12.4146657 28.48192093 11.07356189 28.99225664 7.4375 29.375 C4 29 4 29 2.0625 27.5 C1.5365625 26.7575 1.5365625 26.7575 1 26 C0.34 26.495 -0.32 26.99 -1 27.5 C-4.79279903 29.39639951 -7.83398107 29.91736579 -12 29 C-15.21954645 26.46546343 -16.70432435 24.88702695 -18 21 C-18.50712636 15.70427061 -18.69406829 11.36334843 -16.25 6.5625 C-15.5075 5.716875 -14.765 4.87125 -14 4 C-13.46375 3.21625 -12.9275 2.4325 -12.375 1.625 C-8.53967216 -0.99917168 -4.50145731 -0.27053834 0 0 Z " fill="#080808" transform="translate(361,254)"/>
<path d="M0 0 C4.09446956 3.71061304 5.2196176 6.64617626 5.5 12.125 C5.35018226 17.6682562 3.85031327 21.76967107 0 25.8125 C-4.57789021 28.77351835 -9.74823916 28.56492304 -15 27.8125 C-18.93985269 25.86200094 -21.37100407 22.85942262 -23 18.8125 C-23.6842501 13.54536554 -23.63405953 9.12758642 -21.3125 4.3125 C-15.48061646 -1.99223896 -8.06209597 -3.19124632 0 0 Z " fill="#080808" transform="translate(303,255.1875)"/>
<path d="M0 0 C2.375 -0.125 2.375 -0.125 5 0 C5.66 0.66 6.32 1.32 7 2 C6.6284923 5.54022812 5.48489328 8.41575792 3.92578125 11.58984375 C3.50844727 12.45061523 3.09111328 13.31138672 2.66113281 14.19824219 C2.21608398 15.10219727 1.77103516 16.00615234 1.3125 16.9375 C-2.45832035 24.59822024 -2.45832035 24.59822024 -5.78515625 32.45703125 C-6.03885986 33.10615479 -6.29256348 33.75527832 -6.55395508 34.42407227 C-7.20613251 36.13492285 -7.8306601 37.85624157 -8.453125 39.578125 C-10 42 -10 42 -12.984375 43.046875 C-16 43 -16 43 -17.796875 41.8984375 C-19.32929936 39.48039127 -19.73176751 37.44566539 -20.25 34.625 C-21.7906382 27.25491994 -24.16927681 20.25888902 -26.66308594 13.16064453 C-26.96375977 12.29165527 -27.26443359 11.42266602 -27.57421875 10.52734375 C-27.84838623 9.75124756 -28.12255371 8.97515137 -28.4050293 8.17553711 C-29 6 -29 6 -29 2 C-25.535 1.505 -25.535 1.505 -22 1 C-19.63588245 3.88008402 -18.31922361 6.446176 -17.17578125 9.984375 C-16.86962891 10.91894531 -16.56347656 11.85351562 -16.24804688 12.81640625 C-15.93931641 13.78449219 -15.63058594 14.75257813 -15.3125 15.75 C-14.99216797 16.73355469 -14.67183594 17.71710938 -14.34179688 18.73046875 C-13.55436594 21.15152506 -12.77404508 23.57463759 -12 26 C-11.63648438 25.04480469 -11.27296875 24.08960938 -10.8984375 23.10546875 C-7.78807387 15.06253985 -4.37332858 7.45947179 0 0 Z " fill="#080808" transform="translate(271,241)"/>
<path d="M0 0 C2.625 1.625 2.625 1.625 4 4 C4.49903881 7.99231045 4.12251595 10.60533506 2 14 C0.1953125 15.23046875 0.1953125 15.23046875 -1.875 16.1875 C-2.89207031 16.67283203 -2.89207031 16.67283203 -3.9296875 17.16796875 C-5.93810364 17.97512467 -7.88939815 18.53150318 -10 19 C-10 19.66 -10 20.32 -10 21 C-4.68895358 21.6021104 -4.68895358 21.6021104 -0.25 19.4375 C0.1625 18.963125 0.575 18.48875 1 18 C3.1875 18.3125 3.1875 18.3125 5 19 C5.33 20.65 5.66 22.3 6 24 C0.80276529 28.35443989 -2.8090843 29.41006641 -9.48828125 29.3515625 C-13.62947086 28.77192476 -15.2120757 27.06671673 -18 24 C-20.52890183 19.72974362 -20.77997937 15.85497363 -20 11 C-18.31035563 6.96440312 -16.02967701 3.94141898 -12.8125 1 C-8.52844153 -0.52322079 -4.48880835 -0.67369974 0 0 Z " fill="#0A0A0A" transform="translate(191,254)"/>
<path d="M0 0 C2.6875 1.625 2.6875 1.625 4 4 C4.5625 6.875 4.5625 6.875 4 10 C1.2212255 14.12846497 -1.10777652 16.77694413 -6 18 C-8.8125 18.125 -8.8125 18.125 -11 18 C-10.34 18.99 -9.68 19.98 -9 21 C-5.54213985 21.50007794 -5.54213985 21.50007794 -2 21 C-0.33289654 19.50014391 -0.33289654 19.50014391 1 18 C3.1875 18.3125 3.1875 18.3125 5 19 C5.33 20.65 5.66 22.3 6 24 C0.80442345 28.35305063 -2.80926854 29.41590893 -9.48828125 29.34765625 C-13.66852267 28.76905363 -15.2141028 27.13413435 -18 24 C-20.59760092 19.74938031 -20.69365119 14.84699473 -20 10 C-15.43237959 1.03393031 -9.74295645 -1.46893805 0 0 Z " fill="#0A0A0A" transform="translate(431,254)"/>
<path d="M0 0 C3.125 1.5 3.125 1.5 5 3 C4.67 4.65 4.34 6.3 4 8 C-0.08378077 8 -3.12315913 7.19287411 -7 6 C-7 6.99 -7 7.98 -7 9 C-6.278125 9.268125 -5.55625 9.53625 -4.8125 9.8125 C-0.49437721 11.6357074 2.36848463 13.05272694 5 17 C5.50835292 20.8973724 5.32962183 22.50556726 3.125 25.8125 C-0.00054234 29.02997006 -1.86638469 29.19871764 -6.25 29.3125 C-11.50732742 29.29177466 -14.05737892 28.40983445 -18 25 C-17.67 23.68 -17.34 22.36 -17 21 C-15.1875 20.375 -15.1875 20.375 -13 20 C-12.01 20.66 -11.02 21.32 -10 22 C-7.37468476 22.16713569 -7.37468476 22.16713569 -5 22 C-5 21.34 -5 20.68 -5 20 C-6.69393348 18.77848921 -6.69393348 18.77848921 -8.8125 17.625 C-14.64726027 14.06621005 -14.64726027 14.06621005 -16 11 C-16 6.92364568 -15.61344006 4.77174717 -13.0625 1.5625 C-8.69199659 -0.66734868 -4.81705587 -0.68702272 0 0 Z " fill="#080808" transform="translate(217,254)"/>
<path d="M0 0 C11.41176471 0 11.41176471 0 16 4 C17.33827901 6.67655801 17.20578556 8.82434052 17.25 11.8125 C17.27578125 12.85019531 17.3015625 13.88789063 17.328125 14.95703125 C16.85709081 19.32531265 15.20722647 21.93910401 11.9375 24.8125 C9 26 9 26 -1 26 C-0.67 17.42 -0.34 8.84 0 0 Z " fill="#F8F8F8" transform="translate(140,250)"/>
<path d="M0 0 C2.9375 0.1875 2.9375 0.1875 3.9375 1.1875 C4.37289003 10.04896776 4.36361607 19.41554075 2.9375 28.1875 C0.9375 30.1875 0.9375 30.1875 -1.5625 30.4375 C-4.0625 30.1875 -4.0625 30.1875 -6.0625 28.1875 C-6.22949219 25.60546875 -6.22949219 25.60546875 -6.109375 22.375 C-6.06683594 21.21742188 -6.02429688 20.05984375 -5.98046875 18.8671875 C-5.92503906 17.65289062 -5.86960938 16.43859375 -5.8125 15.1875 C-5.77253906 13.97320312 -5.73257813 12.75890625 -5.69140625 11.5078125 C-5.23044801 0.32023151 -5.23044801 0.32023151 0 0 Z " fill="#090909" transform="translate(233.0625,253.8125)"/>
<path d="M0 0 C4.75 0.75 4.75 0.75 7 3 C7.265625 5.27734375 7.265625 5.27734375 7.25 7.9375 C7.25515625 8.81277344 7.2603125 9.68804687 7.265625 10.58984375 C7 13 7 13 5 16 C1.875 16.1875 1.875 16.1875 -1 16 C-3.49615286 12.25577071 -3.61489576 8.34882801 -3 4 C-1.5 1.5 -1.5 1.5 0 0 Z " fill="#F5F5F5" transform="translate(292,260)"/>
<path d="M0 0 C0.7425 0.2475 1.485 0.495 2.25 0.75 C2.80353075 11.30808656 2.80353075 11.30808656 -0.75 15.75 C-5.625 14.875 -5.625 14.875 -6.75 13.75 C-7.26590826 9.10682563 -7.58999524 5.08777019 -5.0625 1.0625 C-2.75 -0.25 -2.75 -0.25 0 0 Z " fill="#F3F3F3" transform="translate(394.75,260.25)"/>
<path d="M0 0 C0.7425 0.2475 1.485 0.495 2.25 0.75 C2.53461911 6.25263621 2.55935464 10.07125724 -0.75 14.75 C-3.4375 15.625 -3.4375 15.625 -5.75 15.75 C-7.59891267 12.05217467 -7.21801175 7.78660136 -6.75 3.75 C-4.67090285 0.43884529 -3.92719394 -0.35701763 0 0 Z " fill="#F5F5F5" transform="translate(358.75,260.25)"/>
<path d="M0 0 C2.5625 0.3125 2.5625 0.3125 4.4375 1.5 C5.5625 3.3125 5.5625 3.3125 5.375 5.9375 C4.5625 8.3125 4.5625 8.3125 2.5625 9.3125 C-0.4375 9.5 -0.4375 9.5 -3.4375 9.3125 C-4.0975 8.6525 -4.7575 7.9925 -5.4375 7.3125 C-5.03038225 3.2413225 -4.47068536 0.57316479 0 0 Z " fill="#121212" transform="translate(233.4375,239.6875)"/>
<path d="M0 0 C1.32 0 2.64 0 4 0 C3.67 1.65 3.34 3.3 3 5 C1.02 5.33 -0.96 5.66 -3 6 C-1.125 1.125 -1.125 1.125 0 0 Z " fill="#F0F0F0" transform="translate(183,260)"/>
<path d="M0 0 C1.32 0 2.64 0 4 0 C3.6875 1.875 3.6875 1.875 3 4 C0 6 0 6 -3 6 C-2.42655063 3.13275314 -2.1385485 2.1385485 0 0 Z " fill="#F6F6F6" transform="translate(423,260)"/>
</svg>
