<?xml version="1.0" encoding="UTF-8"?>
<svg version="1.1" xmlns="http://www.w3.org/2000/svg" width="500" height="500">
<path d="M0 0 C1.17205522 3.90685074 1.04959499 5.85830002 -0.3125 9.75 C-2.90792565 14.5450949 -6.85222351 17.97734459 -10.85546875 21.60546875 C-13.1559316 24.17410941 -13.69346297 25.61607161 -14 29 C-12.35 29 -10.7 29 -9 29 C-7.8125 31.25 -7.8125 31.25 -7 34 C-7.495 34.5775 -7.99 35.155 -8.5 35.75 C-10.20474109 37.80949285 -10.20474109 37.80949285 -9.8671875 39.86328125 C-9.32788351 42.27302846 -8.69271917 44.62960159 -8 47 C-4.58126794 58.71901905 -4.58126794 58.71901905 -5 65 C-6.98 65.99 -6.98 65.99 -9 67 C-13.82131193 59.98747177 -18.07683116 52.74992058 -22.20703125 45.31445312 C-22.66980469 44.49783203 -23.13257813 43.68121094 -23.609375 42.83984375 C-24.02155273 42.10113037 -24.43373047 41.36241699 -24.85839844 40.60131836 C-25.23512695 40.0728833 -25.61185547 39.54444824 -26 39 C-28.08016055 38.77518047 -28.08016055 38.77518047 -29.4453125 40.3203125 C-29.99960938 40.91585937 -30.55390625 41.51140625 -31.125 42.125 C-34.77138437 45.89420995 -38.72971494 48.97197968 -43 52 C-42.84402344 52.66386719 -42.68804687 53.32773437 -42.52734375 54.01171875 C-42.33269531 54.89472656 -42.13804688 55.77773438 -41.9375 56.6875 C-41.64166016 57.99267578 -41.64166016 57.99267578 -41.33984375 59.32421875 C-40.97967721 62.16001276 -41.29090031 64.24789982 -42 67 C-43.32 67 -44.64 67 -46 67 C-49 62.92857143 -49 62.92857143 -49 60 C-49.66 59.67 -50.32 59.34 -51 59 C-51 58.67 -51 58.34 -51 58 C-52.65 57.67 -54.3 57.34 -56 57 C-56 55.68 -56 54.36 -56 53 C-58.43234521 50.96546391 -58.43234521 50.96546391 -61.5 49.25 C-62.5209375 48.63640625 -63.541875 48.0228125 -64.59375 47.390625 C-65.3878125 46.93171875 -66.181875 46.4728125 -67 46 C-66.01 44.68 -65.02 43.36 -64 42 C-63.16855469 42.144375 -62.33710937 42.28875 -61.48046875 42.4375 C-59.85044922 42.7159375 -59.85044922 42.7159375 -58.1875 43 C-56.56908203 43.2784375 -56.56908203 43.2784375 -54.91796875 43.5625 C-51.99729102 44.07413786 -51.99729102 44.07413786 -49 44 C-48.814375 43.319375 -48.62875 42.63875 -48.4375 41.9375 C-46.68598612 38.35831945 -44.36815934 36.22661196 -41.4609375 33.55078125 C-39.77143075 32.1124667 -39.77143075 32.1124667 -40 30 C-39.01 29.34 -38.02 28.68 -37 28 C-46.5703324 22.16923193 -56.2932276 16.59925614 -66 11 C-64.125 7.125 -64.125 7.125 -63 6 C-58.79196129 5.76858832 -55.24155938 6.27872156 -51.1875 7.375 C-50.15238281 7.64441406 -49.11726563 7.91382813 -48.05078125 8.19140625 C-47.04402344 8.45824219 -46.03726563 8.72507813 -45 9 C-41.98797514 9.79538319 -39.07417446 10.45458195 -36 11 C-35.34 10.34 -34.68 9.68 -34 9 C-31.375 8.875 -31.375 8.875 -29 9 C-28.938125 9.78375 -28.87625 10.5675 -28.8125 11.375 C-28.544375 12.24125 -28.27625 13.1075 -28 14 C-25.52363988 15.37466625 -25.52363988 15.37466625 -23 16 C-23 15.01 -23 14.02 -23 13 C-21.5390625 11.39453125 -21.5390625 11.39453125 -19.625 9.8125 C-18.99851563 9.28269531 -18.37203125 8.75289062 -17.7265625 8.20703125 C-16 7 -16 7 -14 7 C-13.67 6.01 -13.34 5.02 -13 4 C-8.55290773 0.87501624 -5.38350255 0 0 0 Z " fill="#FDFDFD" transform="translate(125,225)"/>
<path d="M0 0 C0.77794922 -0.02449219 1.55589844 -0.04898438 2.35742188 -0.07421875 C8.14538158 -0.10318269 12.47245676 1.15758894 17.3125 4.375 C21.98227431 9.1676631 23.61874326 13.93440482 23.8125 20.5625 C23.68723578 27.47551937 21.89059033 32.18842931 17.3125 37.375 C9.89831197 43.52508318 2.78796784 43.89736041 -6.49609375 43.1484375 C-8.89594927 42.91015397 -11.29218894 42.65503637 -13.6875 42.375 C-13.94342254 32.70681532 -13.59495875 23.14369594 -12.875 13.5 C-12.80490723 12.43587891 -12.73481445 11.37175781 -12.66259766 10.27539062 C-12.58187012 9.27958984 -12.50114258 8.28378906 -12.41796875 7.2578125 C-12.34989014 6.36465332 -12.28181152 5.47149414 -12.21166992 4.55126953 C-10.85140756 -1.09632186 -4.65859336 0.00753208 0 0 Z M-2.6875 9.375 C-4.35462437 17.47470802 -3.79550829 26.15436898 -3.6875 34.375 C2.22428856 34.55885945 5.76187054 34.16131185 10.3125 30.375 C13.05340064 26.48468942 13.8610413 23.00970723 13.6640625 18.3359375 C13.05913959 14.96181191 11.54502557 12.90921821 9.3125 10.375 C5.43715416 8.18890747 1.41174591 7.32537705 -2.6875 9.375 Z " fill="#FDFDFD" transform="translate(143.6875,241.625)"/>
<path d="M0 0 C0.80179687 0.00451172 1.60359375 0.00902344 2.4296875 0.01367188 C4.41149006 0.02546832 6.39325433 0.04340395 8.375 0.0625 C12.76372656 8.83995312 9.76825787 27.9184487 7.375 37.0625 C5.25884127 40.86977702 3.63386636 43.7059113 -0.625 45.0625 C-6.30584659 45.85781852 -10.71823171 45.17410916 -15.625 42.0625 C-17.625 40.0625 -17.625 40.0625 -17.75 37.4375 C-17.70875 36.65375 -17.6675 35.87 -17.625 35.0625 C-16 33.875 -16 33.875 -13.625 33.0625 C-11.59226926 33.99416826 -9.59115661 34.9974985 -7.625 36.0625 C-6.305 36.0625 -4.985 36.0625 -3.625 36.0625 C-2.965 33.7525 -2.305 31.4425 -1.625 29.0625 C-2.140625 29.413125 -2.65625 29.76375 -3.1875 30.125 C-6.69830611 31.47531004 -9.00366919 30.95194967 -12.625 30.0625 C-16.53707911 27.62831744 -18.50363397 25.5479641 -19.625 21.0625 C-20.2480586 14.7280709 -19.26307344 10.33829139 -15.625 5.0625 C-10.4131286 0.22290513 -6.91375545 -0.07295359 0 0 Z M-7.3203125 9.28125 C-8.89833592 11.43567719 -9.2091945 12.91881365 -9.5 15.5625 C-9.60054688 16.3359375 -9.70109375 17.109375 -9.8046875 17.90625 C-9.82441669 20.17200249 -9.82441669 20.17200249 -8.1328125 21.84375 C-7.63523437 22.2459375 -7.13765625 22.648125 -6.625 23.0625 C-4.60915751 22.41292117 -4.60915751 22.41292117 -2.625 21.0625 C-1.66992949 18.76496032 -1.66992949 18.76496032 -1.3125 16.125 C-1.15136719 15.24972656 -0.99023438 14.37445313 -0.82421875 13.47265625 C-0.45412387 10.91962381 -0.45412387 10.91962381 -1.625 8.0625 C-5.43168107 7.6733579 -5.43168107 7.6733579 -7.3203125 9.28125 Z " fill="#FDFDFD" transform="translate(397.625,252.9375)"/>
<path d="M0 0 C6.72 0.72 6.72 0.72 8 2 C8.08651611 3.41570123 8.10704904 4.835595 8.09765625 6.25390625 C8.09443359 7.10791016 8.09121094 7.96191406 8.08789062 8.84179688 C8.07951172 9.73962891 8.07113281 10.63746094 8.0625 11.5625 C8.05798828 12.46419922 8.05347656 13.36589844 8.04882812 14.29492188 C8.03700225 16.53001314 8.0205222 18.76497437 8 21 C9.97536745 20.65213292 9.97536745 20.65213292 12 20 C13.7866365 16.42672701 13.35252427 12.20621618 13.5234375 8.26171875 C14.03391027 4.7679092 14.85778935 2.78745482 17 0 C19.5625 -0.4375 19.5625 -0.4375 22 0 C24 2 24 2 24.23046875 3.9609375 C24.12905592 9.65849468 23.80976267 15.30228964 23.27734375 20.9765625 C23.09458431 22.96889777 22.94022243 24.96407236 22.81640625 26.9609375 C22.38400811 33.40278739 21.65322278 38.68347153 17.5 43.875 C13.82273773 46.6329467 9.38431057 46.46500264 5 46 C0.9924859 44.48773053 -2.12581054 42.9826526 -4 39 C-3.1875 36.25 -3.1875 36.25 -2 34 C2.25320385 33.64556635 3.67612238 34.50709178 7 37 C9.66761764 37.25124826 9.66761764 37.25124826 12 37 C12 34.69 12 32.38 12 30 C11.67 30.33 11.34 30.66 11 31 C3.85585586 31.58558559 3.85585586 31.58558559 0.625 29.375 C-4.02215499 22.58300424 -3.89619939 14.40232341 -2.58203125 6.48046875 C-1.35337678 1.35337678 -1.35337678 1.35337678 0 0 Z " fill="#FDFDFD" transform="translate(315,253)"/>
<path d="M0 0 C3.3852844 1.9702996 3.84090154 3.83769835 5.1015625 7.50390625 C5.48570312 8.58800781 5.86984375 9.67210937 6.265625 10.7890625 C6.66523438 11.99433594 7.06484375 13.19960937 7.4765625 14.44140625 C8.02595544 16.08596631 8.5754364 17.73049696 9.125 19.375 C9.57580248 20.73037511 10.02642411 22.08581045 10.4765625 23.44140625 C10.7031958 22.92755371 10.9298291 22.41370117 11.16333008 21.88427734 C12.20373521 19.52765231 13.24638156 17.17202519 14.2890625 14.81640625 C14.82370117 13.60404297 14.82370117 13.60404297 15.36914062 12.3671875 C17.30335368 8.00189932 19.29650528 3.69148625 21.4765625 -0.55859375 C23.7865625 -0.55859375 26.0965625 -0.55859375 28.4765625 -0.55859375 C29.63330078 1.05615234 29.63330078 1.05615234 30.4765625 3.44140625 C29.57373047 6.30712891 29.57373047 6.30712891 27.96875 9.60546875 C27.68685822 10.19758148 27.40496643 10.78969421 27.11453247 11.39974976 C26.2082484 13.29613446 25.28089696 15.18122623 24.3515625 17.06640625 C23.45069814 18.92667664 22.55437771 20.78906175 21.659729 22.65232849 C20.79222939 24.45762033 19.91909852 26.26020266 19.04589844 28.06274414 C17.29235903 31.83798246 15.78788147 35.65851086 14.40283203 39.58227539 C13.4765625 41.44140625 13.4765625 41.44140625 10.4765625 43.25390625 C7.4765625 43.44140625 7.4765625 43.44140625 5.40039062 42.2890625 C2.99753362 39.98134399 2.52023879 38.27995721 1.6953125 35.06640625 C1.26798828 33.46345703 1.26798828 33.46345703 0.83203125 31.828125 C0.54972656 30.71050781 0.26742187 29.59289062 -0.0234375 28.44140625 C-0.59201449 26.25277427 -1.16490688 24.06525866 -1.7421875 21.87890625 C-2.16371094 20.27015625 -2.16371094 20.27015625 -2.59375 18.62890625 C-3.77989762 14.56211442 -5.31632973 10.68022212 -6.96679688 6.78125 C-7.5234375 4.44140625 -7.5234375 4.44140625 -6.81445312 2.1953125 C-4.82662916 -0.50524108 -3.18569551 -0.70519266 0 0 Z " fill="#FDFDFD" transform="translate(248.5234375,241.55859375)"/>
<path d="M0 0 C0.33 -0.33 0.66 -0.66 1 -1 C3.33944736 -0.71269945 5.6739143 -0.38063221 8 0 C8.13794954 7.06608191 7.74805717 13.97360585 7 21 C8.98 21 10.96 21 13 21 C13.8125 22.6875 13.8125 22.6875 14 25 C11.52486099 28.30018534 10.06077239 29.82681267 5.9375 30.5 C2.77961005 29.96248682 1.32893595 29.14978703 -1 27 C-1.825 27.515625 -2.65 28.03125 -3.5 28.5625 C-7.72442445 30.29753147 -10.69761473 30.62003396 -15 29 C-18.02316101 26.50551985 -19.75642452 23.73072644 -21 20 C-21.56006803 12.85913262 -20.12435146 7.49611297 -15.5 2.0625 C-10.84822942 -1.77521073 -5.62216132 -1.87405377 0 0 Z M-8 7 C-10.38536438 11.17438766 -11.6445541 14.16584428 -11 19 C-9.62493901 20.87890434 -9.62493901 20.87890434 -8 22 C-4.90637165 21.35513579 -4.90637165 21.35513579 -4.015625 19.109375 C-2.00598569 13.13066137 -2.00598569 13.13066137 -3 7 C-4.65 7 -6.3 7 -8 7 Z " fill="#FDFDFD" transform="translate(363,254)"/>
<path d="M0 0 C3.59199052 2.48018393 5.06308463 4.57355037 6.12890625 8.8203125 C7.0905021 14.63037584 6.38387217 19.57798589 3.625 24.8125 C0.12085981 28.23117336 -2.17535765 29.73116832 -7.0625 30.0625 C-11.40712897 29.98365011 -14.56940585 29.00803509 -18.375 26.8125 C-22.07531063 22.62530639 -23.62794264 18.38735587 -23.375 12.8125 C-22.4947342 8.08399257 -21.30467041 4.74217041 -17.875 1.3125 C-12.19525636 -2.09534618 -6.15972714 -2.1673114 0 0 Z M-10.375 6.8125 C-13.018375 9.82047845 -13.38874808 11.41380564 -13.25 15.4375 C-12.30822366 19.38274145 -12.30822366 19.38274145 -9.375 21.8125 C-7.26350355 21.88892709 -7.26350355 21.88892709 -5.375 20.8125 C-3.02970029 17.64634539 -2.97489114 14.65354501 -3.375 10.8125 C-4.4825902 8.38965762 -4.4825902 8.38965762 -6.375 6.8125 C-7.695 6.8125 -9.015 6.8125 -10.375 6.8125 Z " fill="#FDFDFD" transform="translate(302.375,254.1875)"/>
<path d="M0 0 C2.52882698 3.24005957 2.78631437 5.33113511 2.546875 9.375 C1.81369389 12.30772442 0.26619883 13.92643756 -2.19921875 15.6328125 C-5.07047673 17.11515393 -7.84551555 17.86851342 -11 18.5625 C-10.34 19.2225 -9.68 19.8825 -9 20.5625 C-5.70285207 20.23278521 -4.3773161 19.9398161 -2 17.5625 C0.5625 17.375 0.5625 17.375 3 17.5625 C4 18.5625 4 18.5625 4.4375 21.375 C4 24.5625 4 24.5625 1.5625 26.875 C-3.22507258 29.14279754 -7.77245575 30.37715953 -13.02734375 29.05078125 C-17.66683737 27.19694553 -20.13228874 25.38469365 -22.25 20.9375 C-23.37637125 15.86882938 -23.30996402 11.2819853 -21.0234375 6.53515625 C-16.11818421 -0.94931086 -8.35263581 -4.00230466 0 0 Z M-9 5.5625 C-11.2477975 7.61483685 -12.0022242 8.56917261 -13 11.5625 C-10.00847418 10.78770264 -10.00847418 10.78770264 -7 9.5625 C-6.67 8.5725 -6.34 7.5825 -6 6.5625 C-6.99 6.2325 -7.98 5.9025 -9 5.5625 Z " fill="#FDFDFD" transform="translate(433,254.4375)"/>
<path d="M0 0 C2.13945694 1.64573611 2.84975347 2.64235258 3.625 5.25 C3.625 9.84244804 3.16407793 11.6724165 0 15.0625 C-3.25816813 17.46658523 -6.4480627 18.38607379 -10.375 19.25 C-9.715 19.91 -9.055 20.57 -8.375 21.25 C-4.93334679 20.89700993 -3.30627462 20.20418308 -0.375 18.25 C2.3125 18.625 2.3125 18.625 4.625 19.25 C5.4375 20.9375 5.4375 20.9375 5.625 23.25 C2.74856785 26.80323971 0.11739006 29.2516911 -4.375 30.25 C-9.26029017 30.31459888 -13.15050745 29.98979758 -17.375 27.4375 C-21.53046396 22.89246129 -21.81978166 19.01610275 -21.68359375 13.0078125 C-21.14984281 8.23783577 -19.58081565 5.12633939 -15.83203125 1.9375 C-10.80466053 -1.37573288 -5.78828731 -1.8278802 0 0 Z M-8.375 6.25 C-9.75732443 7.87626404 -11.09437515 9.5425002 -12.375 11.25 C-11.385 11.745 -11.385 11.745 -10.375 12.25 C-7.75112865 10.85907108 -7.75112865 10.85907108 -5.375 9.25 C-5.705 8.26 -6.035 7.27 -6.375 6.25 C-7.035 6.25 -7.695 6.25 -8.375 6.25 Z " fill="#FDFDFD" transform="translate(192.375,253.75)"/>
<path d="M0 0 C2.625 1.8125 2.625 1.8125 3.625 4.375 C3.625 5.179375 3.625 5.98375 3.625 6.8125 C2.965 7.4725 2.305 8.1325 1.625 8.8125 C-1.96088324 8.42483695 -5.07487921 7.22683748 -8.375 5.8125 C-8.375 6.8025 -8.375 7.7925 -8.375 8.8125 C-7.67375 9.039375 -6.9725 9.26625 -6.25 9.5 C-2.56977529 11.18010258 -0.14894367 12.84502537 2.625 15.8125 C3.44237615 18.65604801 3.41326292 20.96439675 2.625 23.8125 C0.44925584 26.50355198 -1.28565856 28.26782928 -4.375 29.8125 C-10.87132312 30.37252785 -14.80622058 29.13007072 -20.375 25.8125 C-20.045 23.8325 -19.715 21.8525 -19.375 19.8125 C-11.94642857 20.8125 -11.94642857 20.8125 -8.375 21.8125 C-8.375 21.1525 -8.375 20.4925 -8.375 19.8125 C-10.09885506 18.51929876 -10.09885506 18.51929876 -12.25 17.3125 C-14.62862486 15.91431191 -16.41292084 14.77457916 -18.375 12.8125 C-19.17623743 5.83028809 -19.17623743 5.83028809 -16.0625 1.875 C-10.98155312 -2.02433133 -5.95565696 -2.09550893 0 0 Z " fill="#FDFDFD" transform="translate(219.375,254.1875)"/>
<path d="M0 0 C3 0.25 3 0.25 5 2.25 C5.16699219 4.38549805 5.16699219 4.38549805 5.046875 7.01171875 C5.00433594 7.96626953 4.96179688 8.92082031 4.91796875 9.90429688 C4.86253906 10.90525391 4.80710938 11.90621094 4.75 12.9375 C4.71003906 13.91912109 4.67007813 14.90074219 4.62890625 15.91210938 C4.35988513 21.33252145 3.75430118 26.10932237 2 31.25 C-0.33294775 31.29241723 -2.66702567 31.29092937 -5 31.25 C-6.71555034 29.53444966 -6.13188127 27.36669782 -6.13916016 25.08056641 C-6.1344873 24.37335449 -6.12981445 23.66614258 -6.125 22.9375 C-6.12161621 22.21997559 -6.11823242 21.50245117 -6.11474609 20.76318359 C-5.92101417 0.49341785 -5.92101417 0.49341785 0 0 Z " fill="#FDFDFD" transform="translate(233,252.75)"/>
<path d="M0 0 C3.5 0.25 3.5 0.25 5.5 2.25 C5.125 5.875 5.125 5.875 4.5 9.25 C-2.125 10.5 -2.125 10.5 -5.5 8.25 C-5.8125 5.25 -5.8125 5.25 -5.5 2.25 C-3.5 0.25 -3.5 0.25 0 0 Z " fill="#FDFDFD" transform="translate(233.5,239.75)"/>
<path d="" fill="#000000" transform="translate(0,0)"/>
<path d="" fill="#000000" transform="translate(0,0)"/>
<path d="" fill="#000000" transform="translate(0,0)"/>
<path d="" fill="#000000" transform="translate(0,0)"/>
<path d="" fill="#000000" transform="translate(0,0)"/>
<path d="" fill="#000000" transform="translate(0,0)"/>
<path d="" fill="#000000" transform="translate(0,0)"/>
<path d="" fill="#000000" transform="translate(0,0)"/>
<path d="" fill="#000000" transform="translate(0,0)"/>
<path d="" fill="#000000" transform="translate(0,0)"/>
<path d="" fill="#000000" transform="translate(0,0)"/>
<path d="" fill="#000000" transform="translate(0,0)"/>
<path d="" fill="#000000" transform="translate(0,0)"/>
<path d="" fill="#000000" transform="translate(0,0)"/>
<path d="" fill="#000000" transform="translate(0,0)"/>
<path d="" fill="#000000" transform="translate(0,0)"/>
<path d="" fill="#000000" transform="translate(0,0)"/>
<path d="" fill="#000000" transform="translate(0,0)"/>
<path d="" fill="#000000" transform="translate(0,0)"/>
<path d="" fill="#000000" transform="translate(0,0)"/>
<path d="" fill="#000000" transform="translate(0,0)"/>
<path d="" fill="#000000" transform="translate(0,0)"/>
<path d="" fill="#000000" transform="translate(0,0)"/>
<path d="" fill="#000000" transform="translate(0,0)"/>
<path d="" fill="#000000" transform="translate(0,0)"/>
<path d="" fill="#000000" transform="translate(0,0)"/>
<path d="" fill="#000000" transform="translate(0,0)"/>
<path d="" fill="#000000" transform="translate(0,0)"/>
<path d="" fill="#000000" transform="translate(0,0)"/>
<path d="" fill="#000000" transform="translate(0,0)"/>
<path d="" fill="#000000" transform="translate(0,0)"/>
<path d="" fill="#000000" transform="translate(0,0)"/>
<path d="" fill="#000000" transform="translate(0,0)"/>
<path d="" fill="#000000" transform="translate(0,0)"/>
<path d="" fill="#000000" transform="translate(0,0)"/>
<path d="" fill="#FF0000" transform="translate(0,0)"/>
<path d="" fill="#FFFFFF" transform="translate(0,0)"/>
<path d="" fill="#000000" transform="translate(0,0)"/>
<path d="" fill="#000000" transform="translate(0,0)"/>
<path d="" fill="#000000" transform="translate(0,0)"/>
<path d="" fill="#000000" transform="translate(0,0)"/>
<path d="" fill="#000000" transform="translate(0,0)"/>
<path d="" fill="#000000" transform="translate(0,0)"/>
<path d="" fill="#000000" transform="translate(0,0)"/>
<path d="" fill="#000000" transform="translate(0,0)"/>
<path d="" fill="#000000" transform="translate(0,0)"/>
<path d="" fill="#000000" transform="translate(0,0)"/>
<path d="" fill="#000000" transform="translate(0,0)"/>
<path d="" fill="#000000" transform="translate(0,0)"/>
<path d="" fill="#000000" transform="translate(0,0)"/>
<path d="" fill="#000000" transform="translate(0,0)"/>
<path d="" fill="#000000" transform="translate(0,0)"/>
<path d="" fill="#000000" transform="translate(0,0)"/>
<path d="" fill="#000000" transform="translate(0,0)"/>
<path d="" fill="#000000" transform="translate(0,0)"/>
<path d="" fill="#000000" transform="translate(0,0)"/>
<path d="" fill="#000000" transform="translate(0,0)"/>
<path d="" fill="#000000" transform="translate(0,0)"/>
<path d="" fill="#000000" transform="translate(0,0)"/>
<path d="" fill="#000000" transform="translate(0,0)"/>
<path d="" fill="#000000" transform="translate(0,0)"/>
<path d="" fill="#000000" transform="translate(0,0)"/>
<path d="" fill="#000000" transform="translate(0,0)"/>
<path d="" fill="#000000" transform="translate(0,0)"/>
<path d="" fill="#000000" transform="translate(0,0)"/>
<path d="" fill="#000000" transform="translate(0,0)"/>
<path d="" fill="#000000" transform="translate(0,0)"/>
<path d="" fill="#000000" transform="translate(0,0)"/>
<path d="" fill="#000000" transform="translate(0,0)"/>
<path d="" fill="#000000" transform="translate(0,0)"/>
<path d="" fill="#000000" transform="translate(0,0)"/>
<path d="" fill="#000000" transform="translate(0,0)"/>
<path d="" fill="#FF0000" transform="translate(0,0)"/>
<path d="" fill="#000000" transform="translate(0,0)"/>
<path d="" fill="#000000" transform="translate(0,0)"/>
<path d="" fill="#000000" transform="translate(0,0)"/>
<path d="" fill="#000000" transform="translate(0,0)"/>
<path d="" fill="#000000" transform="translate(0,0)"/>
<path d="" fill="#000000" transform="translate(0,0)"/>
<path d="" fill="#000000" transform="translate(0,0)"/>
<path d="" fill="#000000" transform="translate(0,0)"/>
<path d="" fill="#000000" transform="translate(0,0)"/>
<path d="" fill="#000000" transform="translate(0,0)"/>
<path d="" fill="#000000" transform="translate(0,0)"/>
</svg>
